<svg xmlns="http://www.w3.org/2000/svg" xmlns:xlink="http://www.w3.org/1999/xlink" version="1.1" x="0px" y="0px" style="enable-background:new 0 0 1024 1024;" xml:space="preserve" viewBox="278.85 251.13 478.07 512.57"><g><path d="M489.2,394.6c-2.8-2.5-5.7-5-8.6-7.4c-4.9-4.1-7.9-9.9-12.4-14.4c-2.6-2.5-5.8-4.5-9.8-5.8c-11.6-3.8-23.5,0.2-29.4,11.2   c-10.2,18.9,12.4,40.5,30.3,28c4.6-3.2,8-9.2,14.7-6.2c2.4,1.1,6.4,4.3,9.7,5C491.7,406.7,495.6,400.2,489.2,394.6z M465.1,389.4   l-2.6,1.1c-0.5,0.2-1.1,0.1-1.6-0.2c-2.4-2.1-5.2-3-8.5-2.6c-0.9,0.1-1-0.1-0.3-0.7c4.1-3.7,8.4-1.7,13,1.5   C465.5,388.7,465.5,389.2,465.1,389.4z"/><path d="M660,619.8c-1.1-0.7-1.5-1.3-1.7-2.6c-2.7-16-12-33.8-19.2-50c-0.1-0.2,0-0.4,0.2-0.5c6.5-2.2,13-4.5,19.4-6.8   c4.3-1.5,7-2.8,8.2-4c2.6-2.5,3-5.9,1.3-10.3c-2.7-6.9-5.3-13.8-7.9-20.7c-1.7-4.5-2.8-9.7-4.3-14.5c-5.1-15.9-28.9,6.2-34.4,10.6   c-0.4,0.3-1,0.1-1.1-0.4l-4.7-21.5c-0.1-0.3,0.1-0.5,0.4-0.5c9.7-0.7,18.8-3.5,27.1-8.5c0.9-0.5,2.5-1.2,3.3-1.3   c12.4-1,20.3-3.4,28-13.9c12.7-17.3,11.6-40.1-0.9-57.3c-7.5-10.4-17-17.4-27.5-24.7c-5-3.5-7.6-8.3-7.8-14.4   c-1-35.9-18.1-69.4-44.9-92.9c-31.4-27.5-72.2-37.4-113.7-33.7c-18.1,1.6-38.8,6.4-54.4,16.2c-12.2,7.7-18.7,18.8-19.4,33.4   c0,1-0.4,1.9-1.1,2.6c-9.3,10.7-17.4,22.2-24.3,34.6c-7,12.5-11.6,26.3-11,40.8c0.4,8.5,3.2,14.6,8.2,21.2c1.7,2.2,1.8,4.5,1.2,7   c-1.3,5.7-3.8,12.8-5.1,18.4c-2.1,9.7-3,19.1-2.7,28.3c0.9,26.1,6.1,51.8,15.7,77.2c5,13.2,13.1,23,27.3,26.4   c2.5,0.6,5.1,1.2,7.5,1.8c0.1,0,0.2,0.2,0.1,0.3l-40.5,31.3c-0.4,0.3-0.6,0.8-0.3,1.3c6.4,16.1,10.3,32.9,11.5,50.3   c0,0.4-0.1,0.7-0.5,0.9c-54.3,22.8-97,61.2-113.1,119.4c-0.1,0.2,0,0.4,0.3,0.4h477.4c0.2,0,0.3-0.2,0.3-0.3   C749.2,700.8,712,653.2,660,619.8z M579,488.8c-8.2,15.2-17.6,31.3-29.9,43.5c-3.3,3.3-8.3,7.3-15.1,12.1c-14.1,10-28.2,20-42.3,30   c-0.4,0.3-0.6,0.7-0.6,1.2v7.2v53.3c0,0.2-0.2,0.5-0.5,0.5l-32.8,2.6c-0.8,0.1-1.4,0.5-1.5,1.3l-4,19c-2,3.8-3.4,8.2-5.9,11.3   c-3.6,4.4-7.8,7.5-12.8,9.6c-17.4,7.1-30,11.7-41.4,25.2c-0.2,0.3-0.2,0.5,0.2,0.6c0.9,0.3,2,0.5,3.5,0.6c9.6,1,18.7,2.3,27.3,3.8   c1.9,0.3,2,0.9,0.2,1.7c-15.9,6.7-32.5,12.2-44.7,25.2c-0.1,0.1-0.3,0.2-0.4,0.3c-0.2,0.1-0.3,0.2-0.4,0.4c0,0.4,0.2,0.7,0.5,0.9   h-11.9c-0.3,0-0.4-0.2-0.3-0.5c7.5-21.5,17.5-41.2,30-59.2c14.9-21.4,36.1-38,55.6-55.9c0.3-0.3,0.3-0.8,0-1   c-9.2-7.3-11.6-16.6-7.2-28.1c0.9-2.2,2.7-5.1,5.6-8.7c-8.2-4.9-7.5-14.2-5.1-22.1c0.1-0.3,0.3-0.5,0.7-0.5   c21.7-2.1,43.1-9.1,60.7-22.1c23.8-17.5,47.6-35,71.5-52.3c0.2-0.2,0.5-0.3,0.8-0.2C579,488.3,579.2,488.6,579,488.8z M603.5,429   c-1,0.5-1.3,1.5-0.9,3c1.9,7.7,3.3,18.3-3.9,23.5c-5.3,3.8-15.1,1.4-16.7-5.2c-1.4-5.5-2.1-12.4-7.7-15.1c-1.6-0.8-2.6-0.2-2.8,1.7   c-0.7,4.5-0.4,9.7-4.4,12.7c-3.2,2.4-6.7-1.7-9-3.4c-0.3-0.3-0.8-0.1-0.9,0.4c-1.5,7.5-6,12.3-13.4,14.3   c-13.8,3.9-29-1.2-23.6-18.9c0.9-3,3.1-7.9,6.6-14.8c2.9-5.9,4.4-11.8,4.4-17.9c-0.1-17-6-35.7-12.6-51.2c-0.1-0.2-0.5-0.2-0.5,0.1   c0.4,18.1,0.6,36.3,0.7,54.5c0,9.5-2.5,18.3-7.5,26.6c-5.6,9.1-14,21-7.5,32.6c1.9,3.3,7.2,9.7,11.2,10.3c1.1,0.2,2-0.7,2-1.8   l-0.2-5.2c0-0.4,0.1-0.5,0.5-0.4c0.8,0.2,1.4,0.4,1.6,0.6c2.6,2.8,5.4,5.2,8.6,7.1c0.2,0.1,0.3,0.4,0.2,0.6   c-12.2,21.5-29.5,36.1-52.2,43.9c-14.5,4.9-32.5,7.3-48.4,9.2c-6.2,0.7-13.9,0-17.4-5.8c-5.1-8.4,3.4-14.5-0.8-22.9   c-1.4-2.9-5-4.8-6-8.1c-5.4-17.1,34.6-8.5,41.8-6.6c0.8,0.2,1,0,0.5-0.7c-5.4-7.9-13.8-12.9-23.6-11.6c-5.7,0.8-13.6,2.8-15.5-4.7   c-1.6-6.2,0.1-10.3,5.2-12.4c7.5-3.1,16.4,1.8,22.9-4.8c4.4-4.4,4.6-11.2,2.2-16.8c-1.6-3.7-7-10.7-11.8-8.4   c-1.1,0.5-1.6,1.4-1.6,2.5c0,0.3,0.2,0.6,0.4,0.8c2.7,2.8,7.9,6.3,5.1,10.8c-0.9,1.5-2.6,1.7-4.4,1.5c-5.5-0.7-11-0.2-16.3,1.7   c-1.2,0.4-2.8,0.5-4.9,0.2c-7.5-1.1-10.1-7.3-7.7-14.5c2.7-8.3,5.8-19.3,9.3-33.1c1.2-4.6,2.9-8,5.4-11.7c4.9-7.2,6-17.1-2.8-22   c-4.7-2.6-9.9-2.4-15.2-1.3c-0.4,0.1-0.6-0.1-0.4-0.5c8-20.5,23-40.2,38.5-55.6c0.3-0.3,0.5-0.8,0.3-1.3   c-4.1-13.6,2.3-21.6,14.4-26.7c18.9-7.9,40.6-10.5,60.9-9.2c44.1,2.9,83.7,28.3,101.5,69.4c4.7,10.8,7.3,22.1,7.6,33.9   c0.1,3.7,0.1,7.7,0.8,11.1c2.8,14,14.8,22,25.6,29.9c9.1,6.7,21.6,18.9,18.9,31.5c-3.6,16.9-23.4,18-32.7,5.5   c-3.5-4.7-6.8-9.7-9.8-14.8C615.7,438.2,607.8,426.6,603.5,429z"/></g></svg>